{
  "accessors": [
    {
      "name": "TurtleDefaultBakeLayer pSphere1_1_0_positions",
      "componentType": 5126,
      "count": 439,
      "min": [
        -2.100001096725464,
        -2.0999999046325684,
        -2.070312976837158
      ],
      "max": [
        2.0999999046325684,
        2.0999999046325684,
        2.129688024520874
      ],
      "type": "VEC3",
      "bufferView": 0,
      "byteOffset": 0
    },
    {
      "name": "TurtleDefaultBakeLayer pSphere1_1_0_normals",
      "componentType": 5126,
      "count": 439,
      "min": [
        -1,
        -1,
        -1
      ],
      "max": [
        1,
        1,
        1
      ],
      "type": "VEC3",
      "bufferView": 1,
      "byteOffset": 0
    },
    {
      "name": "TurtleDefaultBakeLayer pSphere1_1_0_texcoords",
      "componentType": 5126,
      "count": 439,
      "min": [
        0,
        0
      ],
      "max": [
        1,
        1
      ],
      "type": "VEC2",
      "bufferView": 2,
      "byteOffset": 0
    },
    {
      "name": "TurtleDefaultBakeLayer pSphere1_1_0_indices",
      "componentType": 5123,
      "count": 2280,
      "min": [
        0
      ],
      "max": [
        438
      ],
      "type": "SCALAR",
      "bufferView": 3,
      "byteOffset": 0
    }
  ],
  "asset": {
    "generator": "obj2gltf",
    "version": "2.0"
  },
  "buffers": [
    {
      "name": "golfball",
      "byteLength": 769196,
      "uri": "data:application/octet-stream;base64,"
    }
  ],
  "bufferViews": [
    {
      "name": "bufferView_0",
      "buffer": 0,
      "byteLength": 5268,
      "byteOffset": 0,
      "byteStride": 12,
      "target": 34962
    },
    {
      "name": "bufferView_1",
      "buffer": 0,
      "byteLength": 5268,
      "byteOffset": 5268,
      "byteStride": 12,
      "target": 34962
    },
    {
      "name": "bufferView_2",
      "buffer": 0,
      "byteLength": 3512,
      "byteOffset": 10536,
      "byteStride": 8,
      "target": 34962
    },
    {
      "name": "bufferView_3",
      "buffer": 0,
      "byteLength": 4560,
      "byteOffset": 14048,
      "target": 34963
    },
    {
      "buffer": 0,
      "byteOffset": 18608,
      "byteLength": 750588
    }
  ],
  "images": [
    {
      "name": "golfball",
      "mimeType": "image/png",
      "bufferView": 4
    }
  ],
  "materials": [
    {
      "name": "Default",
      "pbrMetallicRoughness": {
        "baseColorFactor": [
          0.8,
          0.8,
          0.8,
          1
        ],
        "metallicFactor": 0,
        "roughnessFactor": 0.9
      },
      "normalTexture": {
        "index": 0
      },
      "emissiveFactor": [
        0,
        0,
        0
      ],
      "alphaMode": "OPAQUE",
      "doubleSided": false
    }
  ],
  "meshes": [
    {
      "name": "TurtleDefaultBakeLayer pSphere1_1",
      "primitives": [
        {
          "attributes": {
            "POSITION": 0,
            "NORMAL": 1,
            "TEXCOORD_0": 2
          },
          "indices": 3,
          "material": 0,
          "mode": 4
        }
      ]
    }
  ],
  "nodes": [
    {
      "name": "TurtleDefaultBakeLayer pSphere1",
      "mesh": 0
    }
  ],
  "samplers": [
    {
      "magFilter": 9729,
      "minFilter": 9986,
      "wrapS": 10497,
      "wrapT": 10497
    }
  ],
  "scene": 0,
  "scenes": [
    {
      "nodes": [
        0
      ]
    }
  ],
  "textures": [
    {
      "name": "golfball",
      "sampler": 0,
      "source": 0
    }
  ]
}
